<svg width="18" height="20" viewBox="0 0 18 20" xmlns="http://www.w3.org/2000/svg">
    <g fill="#2C2C2C" fill-rule="nonzero">
        <path d="M14.913 10.14a.77.77 0 1 0-1.081 1.093 6.875 6.875 0 0 1 2.053 4.92c0 .942-2.697 2.309-6.923 2.309-4.227 0-6.923-1.368-6.923-2.31a6.876 6.876 0 0 1 2.026-4.894.77.77 0 1 0-1.087-1.088A8.406 8.406 0 0 0 .5 16.154C.5 18.652 4.86 20 8.962 20c4.102 0 8.461-1.348 8.461-3.846a8.4 8.4 0 0 0-2.51-6.015z"/>
        <path d="M8.962 10.77a5.385 5.385 0 1 0-5.385-5.385 5.39 5.39 0 0 0 5.385 5.384zm0-9.232a3.846 3.846 0 1 1 0 7.693 3.846 3.846 0 0 1 0-7.693z"/>
    </g>
</svg>
