<svg width="20" height="20" viewBox="0 0 20 20" xmlns="http://www.w3.org/2000/svg">
    <g fill="#2C2C2C" fill-rule="nonzero">
        <path d="M10.491 11.89a.508.508 0 0 0-.507.507 2.38 2.38 0 1 1-2.38-2.38.508.508 0 1 0 0-1.016A3.396 3.396 0 1 0 11 12.397a.508.508 0 0 0-.509-.508z"/>
        <path d="M14.526 13.565a.508.508 0 0 0-.588-.413l-1.063.187a.508.508 0 0 0-.403.368c-.113.42-.28.825-.499 1.202-.099.171-.09.385.025.547l.62.884a.31.31 0 0 1-.034.397l-.638.638a.31.31 0 0 1-.397.034l-.884-.62a.508.508 0 0 0-.547-.024 5.007 5.007 0 0 1-1.202.499.508.508 0 0 0-.368.402l-.189 1.062a.31.31 0 0 1-.305.256h-.902a.31.31 0 0 1-.305-.256l-.186-1.062a.508.508 0 0 0-.368-.403 5.014 5.014 0 0 1-1.203-.499.508.508 0 0 0-.547.024l-.882.62a.31.31 0 0 1-.397-.034l-.638-.638a.31.31 0 0 1-.035-.397l.62-.884a.508.508 0 0 0 .025-.546 5 5 0 0 1-.499-1.202.508.508 0 0 0-.403-.369l-1.062-.186a.31.31 0 0 1-.256-.304v-.902c0-.15.108-.28.256-.305l1.062-.187a.508.508 0 0 0 .403-.368 5 5 0 0 1 .499-1.203.508.508 0 0 0-.024-.547l-.62-.881a.31.31 0 0 1 .034-.398l.638-.637a.31.31 0 0 1 .397-.035l.884.62a.508.508 0 0 0 .547.025 5.01 5.01 0 0 1 1.202-.5.508.508 0 0 0 .369-.402l.186-1.062a.508.508 0 1 0-1-.176l-.133.754c-.29.096-.571.213-.843.352l-.627-.44a1.323 1.323 0 0 0-1.698.148l-.64.635a1.324 1.324 0 0 0-.148 1.699l.44.627a6.018 6.018 0 0 0-.352.844l-.753.132A1.323 1.323 0 0 0 0 11.946v.902c0 .643.462 1.195 1.096 1.305l.754.133c.096.29.213.571.352.843l-.442.627a1.324 1.324 0 0 0 .148 1.698l.638.638a1.323 1.323 0 0 0 1.699.147l.625-.44c.271.139.553.256.843.352l.132.754A1.323 1.323 0 0 0 7.152 20h.902c.644 0 1.195-.462 1.306-1.096l.132-.754c.29-.096.572-.214.844-.352l.627.44c.527.37 1.244.308 1.698-.148l.638-.638a1.324 1.324 0 0 0 .148-1.698l-.44-.625a6.03 6.03 0 0 0 .352-.844l.754-.132a.508.508 0 0 0 .413-.588z"/>
        <path d="m19.047 4.61-.531-.094a4.862 4.862 0 0 0-.235-.56l.313-.44a1.15 1.15 0 0 0-.129-1.477l-.503-.504a1.15 1.15 0 0 0-1.478-.129l-.441.31a4.848 4.848 0 0 0-.561-.234l-.091-.53A1.15 1.15 0 0 0 14.255 0h-.71a1.15 1.15 0 0 0-1.135.953l-.093.531a4.848 4.848 0 0 0-.56.235l-.443-.313a1.15 1.15 0 0 0-1.476.129l-.502.503a1.15 1.15 0 0 0-.129 1.478l.31.441c-.09.182-.168.37-.235.561l-.529.091A1.15 1.15 0 0 0 7.8 5.744v.71a1.15 1.15 0 0 0 .953 1.136l.531.093c.066.192.145.379.234.56l-.31.443a1.15 1.15 0 0 0 .128 1.476l.502.502a1.15 1.15 0 0 0 1.477.129l.443-.31c.182.09.369.168.56.234l.094.531a1.15 1.15 0 0 0 1.134.953h.711a1.15 1.15 0 0 0 1.134-.955l.093-.53c.191-.067.378-.145.56-.235l.44.312a1.15 1.15 0 0 0 1.478-.129l.503-.503a1.15 1.15 0 0 0 .129-1.475l-.31-.444c.089-.182.167-.369.234-.56l.53-.094A1.15 1.15 0 0 0 20 6.455v-.71c0-.56-.401-1.04-.953-1.136zm-.063 1.846a.136.136 0 0 1-.113.135l-.837.147a.508.508 0 0 0-.403.368 3.84 3.84 0 0 1-.382.921c-.1.172-.09.385.024.547l.489.697a.136.136 0 0 1-.016.175l-.502.502a.136.136 0 0 1-.174.013l-.698-.488a.508.508 0 0 0-.547-.025c-.289.167-.599.296-.921.383a.508.508 0 0 0-.367.403l-.147.838a.136.136 0 0 1-.134.113h-.711a.136.136 0 0 1-.134-.113l-.148-.838a.508.508 0 0 0-.368-.402 3.844 3.844 0 0 1-.922-.383.508.508 0 0 0-.547.024l-.695.488a.136.136 0 0 1-.175-.015l-.502-.503a.136.136 0 0 1-.015-.175l.488-.697a.508.508 0 0 0 .025-.546 3.834 3.834 0 0 1-.383-.922.508.508 0 0 0-.403-.366l-.838-.147a.136.136 0 0 1-.113-.135v-.71c0-.067.048-.123.114-.135l.837-.147a.508.508 0 0 0 .402-.368c.087-.323.216-.633.383-.922a.508.508 0 0 0-.024-.547l-.488-.696a.136.136 0 0 1 .015-.175l.503-.503a.136.136 0 0 1 .175-.015l.697.488a.508.508 0 0 0 .546.025c.29-.167.6-.296.922-.383a.508.508 0 0 0 .368-.403l.147-.837a.136.136 0 0 1 .133-.111h.71c.067 0 .123.047.135.113l.147.837a.508.508 0 0 0 .368.403c.323.087.632.215.922.382.171.1.384.09.546-.024l.697-.489a.136.136 0 0 1 .175.016l.503.502c.046.047.051.12.014.174l-.489.698a.508.508 0 0 0-.024.547c.167.289.295.599.382.921.051.19.209.334.403.368l.837.147a.136.136 0 0 1 .113.135v.71z"/>
        <path d="M13.9 3.674a2.426 2.426 0 1 0 0 4.852 2.426 2.426 0 0 0 0-4.852zm0 3.837a1.41 1.41 0 1 1 0-2.823v.001a1.41 1.41 0 1 1 0 2.822z"/>
    </g>
</svg>
