<svg width="20" height="20" viewBox="0 0 20 20" xmlns="http://www.w3.org/2000/svg">
    <path d="m19.463 8.7-.002-.002L11.302.54A1.829 1.829 0 0 0 10 0a1.83 1.83 0 0 0-1.302.54L.543 8.693l-.008.009a1.844 1.844 0 0 0 .003 2.6 1.831 1.831 0 0 0 1.279.54h.325v6.004c0 1.188.967 2.155 2.155 2.155H7.49a.586.586 0 0 0 .586-.586v-4.707c0-.543.442-.984.984-.984h1.883c.542 0 .983.441.983.984v4.707c0 .324.262.586.586.586h3.192a2.158 2.158 0 0 0 2.155-2.155v-6.004h.302a1.83 1.83 0 0 0 1.302-.54 1.844 1.844 0 0 0 0-2.603zm-.83 1.774a.665.665 0 0 1-.473.197h-.888a.586.586 0 0 0-.586.586v6.59a.984.984 0 0 1-.983.983h-2.606v-4.121a2.158 2.158 0 0 0-2.155-2.156H9.059a2.158 2.158 0 0 0-2.156 2.156v4.121H4.297a.984.984 0 0 1-.983-.983v-6.59a.586.586 0 0 0-.586-.586h-.872a.664.664 0 0 1-.488-.196.67.67 0 0 1 0-.948l8.159-8.159A.664.664 0 0 1 10 1.172c.179 0 .347.07.473.196l8.157 8.157.004.004a.67.67 0 0 1-.001.945z" fill="#2C2C2C" fill-rule="nonzero"/>
</svg>
