<svg width="20" height="20" viewBox="0 0 20 20" xmlns="http://www.w3.org/2000/svg">
    <g fill="#2C2C2C" fill-rule="nonzero">
        <path d="M2.306 15.6a3.89 3.89 0 0 1-1.913-.504.603.603 0 0 1-.24-.844c.604-.965.822-2.146.546-3.256C.412 9.846-.003 8.876 0 7.658.01 3.384 3.568-.082 7.838 0c4.124.084 7.523 3.55 7.523 7.676 0 5.387-5.646 9.17-10.631 7.09-.687.539-1.55.832-2.424.832zm-.812-1.316a2.755 2.755 0 0 0 2.72-.642.594.594 0 0 1 .669-.108c4.267 2.04 9.29-1.158 9.29-5.857 0-3.507-2.853-6.417-6.359-6.488-3.613-.071-6.617 2.855-6.626 6.472-.003 1.157.449 2.082.696 3.178a5.302 5.302 0 0 1-.39 3.445z"/>
        <path d="M17.694 20a3.945 3.945 0 0 1-2.424-.833c-2.651 1.107-5.804.603-7.978-1.274a.594.594 0 0 1 .777-.9c1.927 1.665 4.75 2.04 7.048.941a.594.594 0 0 1 .67.11c.723.7 1.78.932 2.719.64a5.28 5.28 0 0 1-.206-4.076 6.444 6.444 0 0 0 .512-2.546c-.004-1.558-.522-3-1.499-4.168a.594.594 0 1 1 .912-.762A7.717 7.717 0 0 1 20 12.06a7.627 7.627 0 0 1-.599 2.995c-.42 1.215-.226 2.516.446 3.599a.603.603 0 0 1-.24.844 3.891 3.891 0 0 1-1.913.503z"/>
        <g transform="translate(3.165 6.654)">
            <circle cx="4.516" cy="1.053" r="1.053"/>
            <circle cx="1.053" cy="1.053" r="1.053"/>
            <circle cx="7.979" cy="1.053" r="1.053"/>
        </g>
    </g>
</svg>
