<svg width="17" height="20" viewBox="0 0 17 20" xmlns="http://www.w3.org/2000/svg">
    <g fill="#2C2C2C" fill-rule="nonzero">
        <path d="M16.854 10.264a.719.719 0 0 0-.15-.769l-2-2a.703.703 0 1 0-.994.994l.788.788h-4.55a.703.703 0 0 0 0 1.406h4.556l-.787.787a.712.712 0 1 0 .987 1.025l1.987-1.987a.7.7 0 0 0 .163-.244z"/>
        <path d="M11.954 12.764a.7.7 0 0 0-.7.7v2.855a.706.706 0 0 1-.7.7H7.744V2.965h2.812a.706.706 0 0 1 .7.7v2.768a.703.703 0 0 0 1.405 0V3.671a2.112 2.112 0 0 0-2.105-2.106H7.66A2.1 2.1 0 0 0 4.961.11L1.445 1.278a2.106 2.106 0 0 0-1.444 2v13.435c0 .908.582 1.714 1.444 2l3.511 1.175c.218.073.446.111.675.112a2.106 2.106 0 0 0 2.025-1.568h2.887a2.112 2.112 0 0 0 2.106-2.106V13.47a.7.7 0 0 0-.694-.706zM6.33 17.882a.706.706 0 0 1-.925.668l-3.512-1.175a.706.706 0 0 1-.48-.668V3.277a.706.706 0 0 1 .48-.662L5.405 1.44a.706.706 0 0 1 .925.67v15.772z"/>
    </g>
</svg>
